# xmcd
#
# Track frame offsets: 
#        150
#        17869
#        31281
#        59220
#        76599
#        95797
#        109625
#        133785
#        151351
#        182170
#        197313
#
# Disc length: 2935 seconds
#
# Revision: 0
# Processed by: cddbd v1.5.2PL0 Copyright (c) Steve Scherf et al.
# Submitted via: ExactAudioCopy v1.0b4
#
DISCID=8d0b750b
DTITLE=Tony Campanella - Taking It To The Street
DYEAR=2019
DGENRE=Blues Rock
TTITLE0=Taking It To The Street
TTITLE1=Pack It Up
TTITLE2=One Foot In The Blues
TTITLE3=You Don't Know
TTITLE4=Good Morning Little Schoolgirl
TTITLE5=Finger On The Trigger
TTITLE6=Mr. Cleanhead
TTITLE7=Checking On My Baby
TTITLE8=Texas Chainsaw
TTITLE9=My Motor's Running
TTITLE10=Those Are The Times
EXTD=
EXTT0=
EXTT1=
EXTT2=
EXTT3=
EXTT4=
EXTT5=
EXTT6=
EXTT7=
EXTT8=
EXTT9=
EXTT10=
PLAYORDER=
